  0
SECTION
  2
HEADER
  9
$ACADVER
  1
AC1015
  9
$INSUNITS
 70
4
  9
$EXTMIN
 10
-1000.0000
 20
-15000.0000
 30
-1000.0000
  9
$EXTMAX
 10
55000.0000
 20
15000.0000
 30
7000.0000
  9
$LUNITS
 70
2
  9
$ANGBASE
 50
0.0000
  0
ENDSEC
  0
SECTION
  2
TABLES
  0
TABLE
  2
LTYPE
  5
0001
100
AcDbSymbolTable
 70
1
  0
LTYPE
  5
0002
100
AcDbSymbolTableRecord
100
AcDbLinetypeTableRecord
  2
Continuous
 70
64
  3
Solid line
 72
65
 73
0
 40
0.0000
  0
ENDTAB
  0
TABLE
  2
LAYER
  5
0003
100
AcDbSymbolTable
 70
9
  0
LAYER
  5
0004
100
AcDbSymbolTableRecord
100
AcDbLayerTableRecord
  2
0
 70
0
 62
7
  6
Continuous
  0
LAYER
  5
0005
100
AcDbSymbolTableRecord
100
AcDbLayerTableRecord
  2
PIPE-DN200
 70
0
 62
5
  6
Continuous
  0
LAYER
  5
0006
100
AcDbSymbolTableRecord
100
AcDbLayerTableRecord
  2
PIPE-DN150
 70
0
 62
3
  6
Continuous
  0
LAYER
  5
0007
100
AcDbSymbolTableRecord
100
AcDbLayerTableRecord
  2
PIPE-DN100
 70
0
 62
1
  6
Continuous
  0
LAYER
  5
0008
100
AcDbSymbolTableRecord
100
AcDbLayerTableRecord
  2
VALVE
 70
0
 62
6
  6
Continuous
  0
LAYER
  5
0009
100
AcDbSymbolTableRecord
100
AcDbLayerTableRecord
  2
FLANGE
 70
0
 62
2
  6
Continuous
  0
LAYER
  5
000A
100
AcDbSymbolTableRecord
100
AcDbLayerTableRecord
  2
SUPPORT
 70
0
 62
4
  6
Continuous
  0
LAYER
  5
000B
100
AcDbSymbolTableRecord
100
AcDbLayerTableRecord
  2
INSTRUMENT
 70
0
 62
30
  6
Continuous
  0
LAYER
  5
000C
100
AcDbSymbolTableRecord
100
AcDbLayerTableRecord
  2
ANNOTATION
 70
0
 62
7
  6
Continuous
  0
ENDTAB
  0
TABLE
  2
STYLE
  5
000D
100
AcDbSymbolTable
 70
1
  0
STYLE
  5
000E
100
AcDbSymbolTableRecord
100
AcDbTextStyleTableRecord
  2
Standard
 70
0
 40
0.0000
 41
1.0000
 50
0.0000
 71
0
 42
2.5000
  1

  3

  0
ENDTAB
  0
TABLE
  2
VIEW
  5
000F
100
AcDbSymbolTable
 70
0
  0
ENDTAB
  0
TABLE
  2
UCS
  5
0010
100
AcDbSymbolTable
 70
0
  0
ENDTAB
  0
TABLE
  2
APPID
  5
0011
100
AcDbSymbolTable
 70
1
  0
APPID
  5
0012
100
AcDbSymbolTableRecord
100
AcDbRegAppTableRecord
  2
ACAD
 70
0
  0
ENDTAB
  0
TABLE
  2
DIMSTYLE
  5
0013
100
AcDbSymbolTable
 70
1
  0
DIMSTYLE
  5
0014
100
AcDbSymbolTableRecord
100
AcDbDimStyleTableRecord
  2
Standard
 70
0
  0
ENDTAB
  0
TABLE
  2
BLOCK_RECORD
  5
0015
100
AcDbSymbolTable
 70
8
  0
BLOCK_RECORD
  5
0016
100
AcDbSymbolTableRecord
100
AcDbBlockTableRecord
  2
*Model_Space
  0
BLOCK_RECORD
  5
0017
100
AcDbSymbolTableRecord
100
AcDbBlockTableRecord
  2
*Paper_Space
  0
BLOCK_RECORD
  5
0018
100
AcDbSymbolTableRecord
100
AcDbBlockTableRecord
  2
GATE_VALVE
  0
BLOCK_RECORD
  5
0019
100
AcDbSymbolTableRecord
100
AcDbBlockTableRecord
  2
BALL_VALVE
  0
BLOCK_RECORD
  5
001A
100
AcDbSymbolTableRecord
100
AcDbBlockTableRecord
  2
CHECK_VALVE
  0
BLOCK_RECORD
  5
001B
100
AcDbSymbolTableRecord
100
AcDbBlockTableRecord
  2
PIPE_SUPPORT
  0
BLOCK_RECORD
  5
001C
100
AcDbSymbolTableRecord
100
AcDbBlockTableRecord
  2
TEE_FITTING
  0
BLOCK_RECORD
  5
001D
100
AcDbSymbolTableRecord
100
AcDbBlockTableRecord
  2
PUMP_NOZZLE
  0
ENDTAB
  0
ENDSEC
  0
SECTION
  2
BLOCKS
  0
BLOCK
  5
001E
  8
0
100
AcDbEntity
100
AcDbBlockBegin
  2
*Model_Space
 70
0
 10
0.0000
 20
0.0000
 30
0.0000
  3
*Model_Space
  1

  0
ENDBLK
  5
001F
  8
0
100
AcDbEntity
100
AcDbBlockEnd
  0
BLOCK
  5
0020
  8
0
100
AcDbEntity
100
AcDbBlockBegin
  2
*Paper_Space
 70
0
 10
0.0000
 20
0.0000
 30
0.0000
  3
*Paper_Space
  1

  0
ENDBLK
  5
0021
  8
0
100
AcDbEntity
100
AcDbBlockEnd
  0
BLOCK
  5
0024
  8
0
100
AcDbEntity
100
AcDbBlockBegin
  2
GATE_VALVE
 70
0
 10
0.0000
 20
0.0000
 30
0.0000
  3
GATE_VALVE
  1

  0
LINE
  5
0022
  8
0
100
AcDbEntity
100
AcDbLine
 10
-200.0000
 20
0.0000
 30
0.0000
 11
200.0000
 21
0.0000
 31
0.0000
  0
LINE
  5
0023
  8
0
100
AcDbEntity
100
AcDbLine
 10
0.0000
 20
-200.0000
 30
0.0000
 11
0.0000
 21
200.0000
 31
0.0000
  0
ENDBLK
  5
0025
  8
0
100
AcDbEntity
100
AcDbBlockEnd
  0
BLOCK
  5
0028
  8
0
100
AcDbEntity
100
AcDbBlockBegin
  2
BALL_VALVE
 70
0
 10
0.0000
 20
0.0000
 30
0.0000
  3
BALL_VALVE
  1

  0
LINE
  5
0026
  8
0
100
AcDbEntity
100
AcDbLine
 10
-150.0000
 20
0.0000
 30
0.0000
 11
150.0000
 21
0.0000
 31
0.0000
  0
LINE
  5
0027
  8
0
100
AcDbEntity
100
AcDbLine
 10
0.0000
 20
-150.0000
 30
0.0000
 11
0.0000
 21
150.0000
 31
0.0000
  0
ENDBLK
  5
0029
  8
0
100
AcDbEntity
100
AcDbBlockEnd
  0
BLOCK
  5
002C
  8
0
100
AcDbEntity
100
AcDbBlockBegin
  2
CHECK_VALVE
 70
0
 10
0.0000
 20
0.0000
 30
0.0000
  3
CHECK_VALVE
  1

  0
LINE
  5
002A
  8
0
100
AcDbEntity
100
AcDbLine
 10
-150.0000
 20
0.0000
 30
0.0000
 11
150.0000
 21
0.0000
 31
0.0000
  0
LINE
  5
002B
  8
0
100
AcDbEntity
100
AcDbLine
 10
0.0000
 20
-150.0000
 30
0.0000
 11
0.0000
 21
150.0000
 31
0.0000
  0
ENDBLK
  5
002D
  8
0
100
AcDbEntity
100
AcDbBlockEnd
  0
BLOCK
  5
0030
  8
0
100
AcDbEntity
100
AcDbBlockBegin
  2
PIPE_SUPPORT
 70
0
 10
0.0000
 20
0.0000
 30
0.0000
  3
PIPE_SUPPORT
  1

  0
LINE
  5
002E
  8
0
100
AcDbEntity
100
AcDbLine
 10
-300.0000
 20
0.0000
 30
0.0000
 11
300.0000
 21
0.0000
 31
0.0000
  0
LINE
  5
002F
  8
0
100
AcDbEntity
100
AcDbLine
 10
0.0000
 20
-300.0000
 30
0.0000
 11
0.0000
 21
300.0000
 31
0.0000
  0
ENDBLK
  5
0031
  8
0
100
AcDbEntity
100
AcDbBlockEnd
  0
BLOCK
  5
0034
  8
0
100
AcDbEntity
100
AcDbBlockBegin
  2
TEE_FITTING
 70
0
 10
0.0000
 20
0.0000
 30
0.0000
  3
TEE_FITTING
  1

  0
LINE
  5
0032
  8
0
100
AcDbEntity
100
AcDbLine
 10
-150.0000
 20
0.0000
 30
0.0000
 11
150.0000
 21
0.0000
 31
0.0000
  0
LINE
  5
0033
  8
0
100
AcDbEntity
100
AcDbLine
 10
0.0000
 20
-150.0000
 30
0.0000
 11
0.0000
 21
150.0000
 31
0.0000
  0
ENDBLK
  5
0035
  8
0
100
AcDbEntity
100
AcDbBlockEnd
  0
BLOCK
  5
0038
  8
0
100
AcDbEntity
100
AcDbBlockBegin
  2
PUMP_NOZZLE
 70
0
 10
0.0000
 20
0.0000
 30
0.0000
  3
PUMP_NOZZLE
  1

  0
LINE
  5
0036
  8
0
100
AcDbEntity
100
AcDbLine
 10
-250.0000
 20
0.0000
 30
0.0000
 11
250.0000
 21
0.0000
 31
0.0000
  0
LINE
  5
0037
  8
0
100
AcDbEntity
100
AcDbLine
 10
0.0000
 20
-250.0000
 30
0.0000
 11
0.0000
 21
250.0000
 31
0.0000
  0
ENDBLK
  5
0039
  8
0
100
AcDbEntity
100
AcDbBlockEnd
  0
ENDSEC
  0
SECTION
  2
ENTITIES
  0
LINE
  5
003A
  8
PIPE-DN200
100
AcDbEntity
100
AcDbLine
 10
0.0000
 20
0.0000
 30
0.0000
 11
50000.0000
 21
0.0000
 31
0.0000
  0
CIRCLE
  5
003B
  8
FLANGE
100
AcDbEntity
100
AcDbCircle
 10
0.0000
 20
0.0000
 30
0.0000
 40
109.5500
  0
CIRCLE
  5
003C
  8
FLANGE
100
AcDbEntity
100
AcDbCircle
 10
50000.0000
 20
0.0000
 30
0.0000
 40
109.5500
  0
INSERT
  5
003D
  8
SUPPORT
100
AcDbEntity
100
AcDbBlockReference
  2
PIPE_SUPPORT
 10
0.0000
 20
0.0000
 30
0.0000
 41
1.0000
 42
1.0000
 43
1.0000
 50
0.0000
  0
INSERT
  5
003E
  8
SUPPORT
100
AcDbEntity
100
AcDbBlockReference
  2
PIPE_SUPPORT
 10
6000.0000
 20
0.0000
 30
0.0000
 41
1.0000
 42
1.0000
 43
1.0000
 50
0.0000
  0
INSERT
  5
003F
  8
SUPPORT
100
AcDbEntity
100
AcDbBlockReference
  2
PIPE_SUPPORT
 10
12000.0000
 20
0.0000
 30
0.0000
 41
1.0000
 42
1.0000
 43
1.0000
 50
0.0000
  0
INSERT
  5
0040
  8
SUPPORT
100
AcDbEntity
100
AcDbBlockReference
  2
PIPE_SUPPORT
 10
18000.0000
 20
0.0000
 30
0.0000
 41
1.0000
 42
1.0000
 43
1.0000
 50
0.0000
  0
INSERT
  5
0041
  8
SUPPORT
100
AcDbEntity
100
AcDbBlockReference
  2
PIPE_SUPPORT
 10
24000.0000
 20
0.0000
 30
0.0000
 41
1.0000
 42
1.0000
 43
1.0000
 50
0.0000
  0
INSERT
  5
0042
  8
SUPPORT
100
AcDbEntity
100
AcDbBlockReference
  2
PIPE_SUPPORT
 10
30000.0000
 20
0.0000
 30
0.0000
 41
1.0000
 42
1.0000
 43
1.0000
 50
0.0000
  0
INSERT
  5
0043
  8
SUPPORT
100
AcDbEntity
100
AcDbBlockReference
  2
PIPE_SUPPORT
 10
36000.0000
 20
0.0000
 30
0.0000
 41
1.0000
 42
1.0000
 43
1.0000
 50
0.0000
  0
INSERT
  5
0044
  8
SUPPORT
100
AcDbEntity
100
AcDbBlockReference
  2
PIPE_SUPPORT
 10
42000.0000
 20
0.0000
 30
0.0000
 41
1.0000
 42
1.0000
 43
1.0000
 50
0.0000
  0
INSERT
  5
0045
  8
SUPPORT
100
AcDbEntity
100
AcDbBlockReference
  2
PIPE_SUPPORT
 10
48000.0000
 20
0.0000
 30
0.0000
 41
1.0000
 42
1.0000
 43
1.0000
 50
0.0000
  0
INSERT
  5
0046
  8
VALVE
100
AcDbEntity
100
AcDbBlockReference
  2
GATE_VALVE
 10
8000.0000
 20
0.0000
 30
0.0000
 41
1.0000
 42
1.0000
 43
1.0000
 50
0.0000
  0
INSERT
  5
0047
  8
VALVE
100
AcDbEntity
100
AcDbBlockReference
  2
GATE_VALVE
 10
20000.0000
 20
0.0000
 30
0.0000
 41
1.0000
 42
1.0000
 43
1.0000
 50
0.0000
  0
INSERT
  5
0048
  8
VALVE
100
AcDbEntity
100
AcDbBlockReference
  2
GATE_VALVE
 10
40000.0000
 20
0.0000
 30
0.0000
 41
1.0000
 42
1.0000
 43
1.0000
 50
0.0000
  0
LWPOLYLINE
  5
0049
  8
PIPE-DN150
100
AcDbEntity
100
AcDbPolyline
 70
0
 90
3
 38
0.0000
 10
5000.0000
 20
0.0000
 10
5000.0000
 20
8000.0000
 10
10000.0000
 20
8000.0000
  0
ARC
  5
004A
  8
PIPE-DN150
100
AcDbEntity
100
AcDbCircle
 10
6500.0000
 20
6500.0000
 30
0.0000
 40
1500.0000
100
AcDbArc
 50
270.0000
 51
360.0000
  0
CIRCLE
  5
004B
  8
FLANGE
100
AcDbEntity
100
AcDbCircle
 10
5000.0000
 20
0.0000
 30
0.0000
 40
84.1500
  0
CIRCLE
  5
004C
  8
FLANGE
100
AcDbEntity
100
AcDbCircle
 10
10000.0000
 20
8000.0000
 30
0.0000
 40
84.1500
  0
INSERT
  5
004D
  8
VALVE
100
AcDbEntity
100
AcDbBlockReference
  2
BALL_VALVE
 10
5000.0000
 20
4000.0000
 30
0.0000
 41
1.0000
 42
1.0000
 43
1.0000
 50
0.0000
  0
INSERT
  5
004E
  8
0
100
AcDbEntity
100
AcDbBlockReference
  2
TEE_FITTING
 10
5000.0000
 20
0.0000
 30
0.0000
 41
1.0000
 42
1.0000
 43
1.0000
 50
0.0000
  0
INSERT
  5
004F
  8
SUPPORT
100
AcDbEntity
100
AcDbBlockReference
  2
PIPE_SUPPORT
 10
5000.0000
 20
4000.0000
 30
0.0000
 41
1.0000
 42
1.0000
 43
1.0000
 50
0.0000
  0
INSERT
  5
0050
  8
SUPPORT
100
AcDbEntity
100
AcDbBlockReference
  2
PIPE_SUPPORT
 10
7500.0000
 20
8000.0000
 30
0.0000
 41
1.0000
 42
1.0000
 43
1.0000
 50
0.0000
  0
LINE
  5
0051
  8
PIPE-DN150
100
AcDbEntity
100
AcDbLine
 10
12500.0000
 20
0.0000
 30
0.0000
 11
12500.0000
 21
12000.0000
 31
0.0000
  0
ARC
  5
0052
  8
PIPE-DN150
100
AcDbEntity
100
AcDbCircle
 10
14000.0000
 20
12000.0000
 30
0.0000
 40
1500.0000
100
AcDbArc
 50
90.0000
 51
180.0000
  0
CIRCLE
  5
0053
  8
FLANGE
100
AcDbEntity
100
AcDbCircle
 10
12500.0000
 20
0.0000
 30
0.0000
 40
84.1500
  0
CIRCLE
  5
0054
  8
FLANGE
100
AcDbEntity
100
AcDbCircle
 10
12500.0000
 20
12000.0000
 30
0.0000
 40
84.1500
  0
INSERT
  5
0055
  8
VALVE
100
AcDbEntity
100
AcDbBlockReference
  2
BALL_VALVE
 10
12500.0000
 20
6000.0000
 30
0.0000
 41
1.0000
 42
1.0000
 43
1.0000
 50
0.0000
  0
INSERT
  5
0056
  8
0
100
AcDbEntity
100
AcDbBlockReference
  2
TEE_FITTING
 10
12500.0000
 20
0.0000
 30
0.0000
 41
1.0000
 42
1.0000
 43
1.0000
 50
0.0000
  0
INSERT
  5
0057
  8
SUPPORT
100
AcDbEntity
100
AcDbBlockReference
  2
PIPE_SUPPORT
 10
12500.0000
 20
6000.0000
 30
0.0000
 41
1.0000
 42
1.0000
 43
1.0000
 50
0.0000
  0
LWPOLYLINE
  5
0058
  8
PIPE-DN150
100
AcDbEntity
100
AcDbPolyline
 70
0
 90
4
 38
0.0000
 10
25000.0000
 20
0.0000
 10
25000.0000
 20
5000.0000
 10
30000.0000
 20
5000.0000
 10
30000.0000
 20
10000.0000
  0
ARC
  5
0059
  8
PIPE-DN150
100
AcDbEntity
100
AcDbCircle
 10
26500.0000
 20
5000.0000
 30
0.0000
 40
1500.0000
100
AcDbArc
 50
180.0000
 51
270.0000
  0
ARC
  5
005A
  8
PIPE-DN150
100
AcDbEntity
100
AcDbCircle
 10
30000.0000
 20
6500.0000
 30
0.0000
 40
1500.0000
100
AcDbArc
 50
270.0000
 51
360.0000
  0
CIRCLE
  5
005B
  8
FLANGE
100
AcDbEntity
100
AcDbCircle
 10
25000.0000
 20
0.0000
 30
0.0000
 40
84.1500
  0
CIRCLE
  5
005C
  8
FLANGE
100
AcDbEntity
100
AcDbCircle
 10
30000.0000
 20
10000.0000
 30
0.0000
 40
84.1500
  0
INSERT
  5
005D
  8
VALVE
100
AcDbEntity
100
AcDbBlockReference
  2
CHECK_VALVE
 10
25000.0000
 20
2500.0000
 30
0.0000
 41
1.0000
 42
1.0000
 43
1.0000
 50
0.0000
  0
INSERT
  5
005E
  8
0
100
AcDbEntity
100
AcDbBlockReference
  2
TEE_FITTING
 10
25000.0000
 20
0.0000
 30
0.0000
 41
1.0000
 42
1.0000
 43
1.0000
 50
0.0000
  0
INSERT
  5
005F
  8
SUPPORT
100
AcDbEntity
100
AcDbBlockReference
  2
PIPE_SUPPORT
 10
25000.0000
 20
2500.0000
 30
0.0000
 41
1.0000
 42
1.0000
 43
1.0000
 50
0.0000
  0
INSERT
  5
0060
  8
SUPPORT
100
AcDbEntity
100
AcDbBlockReference
  2
PIPE_SUPPORT
 10
27500.0000
 20
5000.0000
 30
0.0000
 41
1.0000
 42
1.0000
 43
1.0000
 50
0.0000
  0
INSERT
  5
0061
  8
SUPPORT
100
AcDbEntity
100
AcDbBlockReference
  2
PIPE_SUPPORT
 10
30000.0000
 20
7500.0000
 30
0.0000
 41
1.0000
 42
1.0000
 43
1.0000
 50
0.0000
  0
LINE
  5
0062
  8
PIPE-DN100
100
AcDbEntity
100
AcDbLine
 10
37500.0000
 20
0.0000
 30
0.0000
 11
37500.0000
 21
3000.0000
 31
0.0000
  0
CIRCLE
  5
0063
  8
FLANGE
100
AcDbEntity
100
AcDbCircle
 10
37500.0000
 20
0.0000
 30
0.0000
 40
57.1500
  0
CIRCLE
  5
0064
  8
FLANGE
100
AcDbEntity
100
AcDbCircle
 10
37500.0000
 20
3000.0000
 30
0.0000
 40
57.1500
  0
INSERT
  5
0065
  8
0
100
AcDbEntity
100
AcDbBlockReference
  2
TEE_FITTING
 10
37500.0000
 20
0.0000
 30
0.0000
 41
1.0000
 42
1.0000
 43
1.0000
 50
0.0000
  0
INSERT
  5
0066
  8
SUPPORT
100
AcDbEntity
100
AcDbBlockReference
  2
PIPE_SUPPORT
 10
37500.0000
 20
1500.0000
 30
0.0000
 41
1.0000
 42
1.0000
 43
1.0000
 50
0.0000
  0
LINE
  5
0067
  8
INSTRUMENT
100
AcDbEntity
100
AcDbLine
 10
5000.0000
 20
4000.0000
 30
0.0000
 11
3000.0000
 21
4000.0000
 31
0.0000
  0
LINE
  5
0068
  8
INSTRUMENT
100
AcDbEntity
100
AcDbLine
 10
12500.0000
 20
6000.0000
 30
0.0000
 11
14500.0000
 21
6000.0000
 31
0.0000
  0
LINE
  5
0069
  8
INSTRUMENT
100
AcDbEntity
100
AcDbLine
 10
27500.0000
 20
5000.0000
 30
0.0000
 11
27500.0000
 21
7000.0000
 31
0.0000
  0
LINE
  5
006A
  8
INSTRUMENT
100
AcDbEntity
100
AcDbLine
 10
37500.0000
 20
1500.0000
 30
0.0000
 11
39500.0000
 21
1500.0000
 31
0.0000
  0
CIRCLE
  5
006B
  8
FLANGE
100
AcDbEntity
100
AcDbCircle
 10
3000.0000
 20
4000.0000
 30
0.0000
 40
57.1500
  0
CIRCLE
  5
006C
  8
FLANGE
100
AcDbEntity
100
AcDbCircle
 10
14500.0000
 20
6000.0000
 30
0.0000
 40
57.1500
  0
CIRCLE
  5
006D
  8
FLANGE
100
AcDbEntity
100
AcDbCircle
 10
27500.0000
 20
7000.0000
 30
0.0000
 40
57.1500
  0
CIRCLE
  5
006E
  8
FLANGE
100
AcDbEntity
100
AcDbCircle
 10
39500.0000
 20
1500.0000
 30
0.0000
 40
57.1500
  0
LINE
  5
006F
  8
PIPE-DN150
100
AcDbEntity
100
AcDbLine
 10
25000.0000
 20
0.0000
 30
0.0000
 11
25000.0000
 21
0.0000
 31
6000.0000
  0
CIRCLE
  5
0070
  8
FLANGE
100
AcDbEntity
100
AcDbCircle
 10
25000.0000
 20
0.0000
 30
6000.0000
 40
84.1500
  0
INSERT
  5
0071
  8
0
100
AcDbEntity
100
AcDbBlockReference
  2
PUMP_NOZZLE
 10
50000.0000
 20
0.0000
 30
0.0000
 41
1.0000
 42
1.0000
 43
1.0000
 50
0.0000
  0
INSERT
  5
0072
  8
0
100
AcDbEntity
100
AcDbBlockReference
  2
PUMP_NOZZLE
 10
0.0000
 20
0.0000
 30
0.0000
 41
1.0000
 42
1.0000
 43
1.0000
 50
180.0000
  0
TEXT
  5
0073
  8
ANNOTATION
100
AcDbEntity
100
AcDbText
 10
0.0000
 20
-1500.0000
 30
0.0000
 40
500.0000
  1
HEADER-DN200-CS-GAS
100
AcDbText
  0
TEXT
  5
0074
  8
ANNOTATION
100
AcDbEntity
100
AcDbText
 10
5000.0000
 20
8500.0000
 30
0.0000
 40
400.0000
  1
BRANCH-A-DN150
100
AcDbText
  0
TEXT
  5
0075
  8
ANNOTATION
100
AcDbEntity
100
AcDbText
 10
12500.0000
 20
12500.0000
 30
0.0000
 40
400.0000
  1
BRANCH-B-DN150
100
AcDbText
  0
TEXT
  5
0076
  8
ANNOTATION
100
AcDbEntity
100
AcDbText
 10
25000.0000
 20
10500.0000
 30
0.0000
 40
400.0000
  1
BRANCH-C-DN150
100
AcDbText
  0
TEXT
  5
0077
  8
ANNOTATION
100
AcDbEntity
100
AcDbText
 10
37500.0000
 20
3500.0000
 30
0.0000
 40
400.0000
  1
BRANCH-D-DN100
100
AcDbText
  0
TEXT
  5
0078
  8
ANNOTATION
100
AcDbEntity
100
AcDbText
 10
8000.0000
 20
500.0000
 30
0.0000
 40
350.0000
  1
GV-001
100
AcDbText
  0
TEXT
  5
0079
  8
ANNOTATION
100
AcDbEntity
100
AcDbText
 10
20000.0000
 20
500.0000
 30
0.0000
 40
350.0000
  1
GV-002
100
AcDbText
  0
TEXT
  5
007A
  8
ANNOTATION
100
AcDbEntity
100
AcDbText
 10
40000.0000
 20
500.0000
 30
0.0000
 40
350.0000
  1
GV-003
100
AcDbText
  0
TEXT
  5
007B
  8
ANNOTATION
100
AcDbEntity
100
AcDbText
 10
5000.0000
 20
4500.0000
 30
0.0000
 40
350.0000
  1
BV-A01
100
AcDbText
  0
TEXT
  5
007C
  8
ANNOTATION
100
AcDbEntity
100
AcDbText
 10
12500.0000
 20
6500.0000
 30
0.0000
 40
350.0000
  1
BV-B01
100
AcDbText
  0
TEXT
  5
007D
  8
ANNOTATION
100
AcDbEntity
100
AcDbText
 10
25000.0000
 20
3000.0000
 30
0.0000
 40
350.0000
  1
CV-C01
100
AcDbText
  0
MTEXT
  5
007E
  8
ANNOTATION
100
AcDbEntity
100
AcDbMText
 10
0.0000
 20
-3000.0000
 30
0.0000
 40
600.0000
 41
5000.0000
 71
1
 72
1
  1
PIPING RACK PR-01\nSERVICE: NATURAL GAS\nDESIGN PRESS: 50 barg\nDESIGN TEMP: 65 degC
  0
MTEXT
  5
007F
  8
ANNOTATION
100
AcDbEntity
100
AcDbMText
 10
25000.0000
 20
-3000.0000
 30
0.0000
 40
500.0000
 41
5000.0000
 71
1
 72
1
  1
ISOMETRIC REF: ISO-PR01-001\nLINE CLASS: 150-CS-G1-N
  0
MTEXT
  5
0080
  8
ANNOTATION
100
AcDbEntity
100
AcDbMText
 10
50000.0000
 20
-1500.0000
 30
0.0000
 40
450.0000
 41
5000.0000
 71
1
 72
1
  1
BATTERY LIMIT\nTIE-IN POINT: TI-001
  0
POINT
  5
0081
  8
ANNOTATION
100
AcDbEntity
100
AcDbPoint
 10
0.0000
 20
0.0000
 30
0.0000
  0
POINT
  5
0082
  8
ANNOTATION
100
AcDbEntity
100
AcDbPoint
 10
50000.0000
 20
0.0000
 30
0.0000
  0
POINT
  5
0083
  8
ANNOTATION
100
AcDbEntity
100
AcDbPoint
 10
25000.0000
 20
0.0000
 30
0.0000
  0
POINT
  5
0084
  8
ANNOTATION
100
AcDbEntity
100
AcDbPoint
 10
5000.0000
 20
8000.0000
 30
0.0000
  0
POINT
  5
0085
  8
ANNOTATION
100
AcDbEntity
100
AcDbPoint
 10
12500.0000
 20
12000.0000
 30
0.0000
  0
POINT
  5
0086
  8
ANNOTATION
100
AcDbEntity
100
AcDbPoint
 10
30000.0000
 20
10000.0000
 30
0.0000
  0
POINT
  5
0087
  8
ANNOTATION
100
AcDbEntity
100
AcDbPoint
 10
37500.0000
 20
3000.0000
 30
0.0000
  0
POINT
  5
0088
  8
ANNOTATION
100
AcDbEntity
100
AcDbPoint
 10
25000.0000
 20
0.0000
 30
6000.0000
  0
SPLINE
  5
0089
  8
ANNOTATION
100
AcDbEntity
100
AcDbSpline
 70
8
 71
3
 72
15
 73
11
 74
0
 42
0.0000000001
 43
0.0000000001
 40
0
 40
0
 40
0
 40
0
 40
0.1250
 40
0.2500
 40
0.3750
 40
0.5000
 40
0.6250
 40
0.7500
 40
0.8750
 40
1
 40
1
 40
1
 40
1
 10
0.0000
 20
-5000.0000
 30
0.0000
 10
5000.0000
 20
-3824.4295
 30
0.0000
 10
10000.0000
 20
-3097.8870
 30
0.0000
 10
15000.0000
 20
-3097.8870
 30
0.0000
 10
20000.0000
 20
-3824.4295
 30
0.0000
 10
25000.0000
 20
-5000.0000
 30
0.0000
 10
30000.0000
 20
-6175.5705
 30
0.0000
 10
35000.0000
 20
-6902.1130
 30
0.0000
 10
40000.0000
 20
-6902.1130
 30
0.0000
 10
45000.0000
 20
-6175.5705
 30
0.0000
 10
50000.0000
 20
-5000.0000
 30
0.0000
  0
ENDSEC
  0
EOF
